<?xml version="1.0" encoding="UTF-8" standalone="no"?>
<!-- Created with Inkscape (http://www.inkscape.org/) -->
<svg
   xmlns:dc="http://purl.org/dc/elements/1.1/"
   xmlns:cc="http://web.resource.org/cc/"
   xmlns:rdf="http://www.w3.org/1999/02/22-rdf-syntax-ns#"
   xmlns:svg="http://www.w3.org/2000/svg"
   xmlns="http://www.w3.org/2000/svg"
   xmlns:xlink="http://www.w3.org/1999/xlink"
   xmlns:sodipodi="http://sodipodi.sourceforge.net/DTD/sodipodi-0.dtd"
   xmlns:inkscape="http://www.inkscape.org/namespaces/inkscape"
   version="1.0"
   x="0.0000000"
   y="0.0000000"
   width="48.000000px"
   height="48.000000px"
   id="svg1"
   sodipodi:version="0.32"
   inkscape:version="0.45"
   sodipodi:docname="document-open.svg"
   sodipodi:docbase="/home/dobey/Projects/gnome-icon-theme/scalable/actions"
   inkscape:export-xdpi="90.000000"
   inkscape:export-ydpi="90.000000"
   inkscape:export-filename="/home/lapo/Desktop/document-open.png"
   inkscape:output_extension="org.inkscape.output.svg.inkscape">
  <metadata
     id="metadata162">
    <rdf:RDF>
      <cc:Work
         rdf:about="">
        <dc:format>image/svg+xml</dc:format>
        <dc:type
           rdf:resource="http://purl.org/dc/dcmitype/StillImage" />
        <dc:title>Folder Drag Accept</dc:title>
        <dc:creator>
          <cc:Agent>
            <dc:title>Jakub Steiner</dc:title>
          </cc:Agent>
        </dc:creator>
        <dc:date />
        <cc:license
           rdf:resource="http://creativecommons.org/licenses/GPL/2.0/" />
        <dc:identifier>http://jimmac.musichall.cz/</dc:identifier>
        <dc:subject>
          <rdf:Bag>
            <rdf:li>folder</rdf:li>
            <rdf:li>directory</rdf:li>
            <rdf:li>storage</rdf:li>
            <rdf:li>drag accept</rdf:li>
          </rdf:Bag>
        </dc:subject>
      </cc:Work>
      <cc:License
         rdf:about="http://creativecommons.org/licenses/GPL/2.0/">
        <cc:permits
           rdf:resource="http://web.resource.org/cc/Reproduction" />
        <cc:permits
           rdf:resource="http://web.resource.org/cc/Distribution" />
        <cc:requires
           rdf:resource="http://web.resource.org/cc/Notice" />
        <cc:permits
           rdf:resource="http://web.resource.org/cc/DerivativeWorks" />
        <cc:requires
           rdf:resource="http://web.resource.org/cc/ShareAlike" />
        <cc:requires
           rdf:resource="http://web.resource.org/cc/SourceCode" />
      </cc:License>
    </rdf:RDF>
  </metadata>
  <sodipodi:namedview
     id="base"
     pagecolor="#ffffff"
     bordercolor="#666"
     borderopacity="1"
     inkscape:pageopacity="0.0"
     inkscape:pageshadow="2"
     inkscape:window-width="1097"
     inkscape:window-height="962"
     inkscape:cy="33.737396"
     inkscape:cx="31.884843"
     inkscape:zoom="1"
     inkscape:document-units="px"
     showgrid="false"
     inkscape:window-x="370"
     inkscape:window-y="58"
     inkscape:current-layer="layer2"
     inkscape:showpageshadow="false"
     showborder="false" />
  <defs
     id="defs3">
    <linearGradient
       id="linearGradient2944">
      <stop
         id="stop2946"
         offset="0"
         style="stop-color:black;stop-opacity:0;" />
      <stop
         style="stop-color:black;stop-opacity:1;"
         offset="0.18072289"
         id="stop1947" />
      <stop
         id="stop2948"
         offset="1"
         style="stop-color:black;stop-opacity:0" />
    </linearGradient>
    <linearGradient
       inkscape:collect="always"
       id="linearGradient2864">
      <stop
         style="stop-color:white;stop-opacity:1;"
         offset="0"
         id="stop2866" />
      <stop
         style="stop-color:white;stop-opacity:0;"
         offset="1"
         id="stop2868" />
    </linearGradient>
    <linearGradient
       id="linearGradient4734">
      <stop
         style="stop-color:#cccdbc;stop-opacity:1;"
         offset="0"
         id="stop4736" />
      <stop
         style="stop-color:#b9baa4;stop-opacity:1;"
         offset="1"
         id="stop4738" />
    </linearGradient>
    <linearGradient
       inkscape:collect="always"
       xlink:href="#linearGradient4734"
       id="linearGradient4740"
       x1="24.588383"
       y1="1.8991361"
       x2="24.588383"
       y2="40.858932"
       gradientUnits="userSpaceOnUse" />
    <linearGradient
       id="linearGradient356">
      <stop
         style="stop-color:#fffff3;stop-opacity:0.54455447;"
         offset="0.0000000"
         id="stop357" />
      <stop
         style="stop-color:#fffff3;stop-opacity:0.0000000;"
         offset="1.0000000"
         id="stop358" />
    </linearGradient>
    <linearGradient
       id="linearGradient311">
      <stop
         style="stop-color:#cfcfc4;stop-opacity:1.0000000;"
         offset="0.0000000"
         id="stop312" />
      <stop
         style="stop-color:#cfcfc4;stop-opacity:1.0000000;"
         offset="0.32673267"
         id="stop335" />
      <stop
         style="stop-color:#cfcfc4;stop-opacity:0;"
         offset="1"
         id="stop313" />
    </linearGradient>
    <linearGradient
       id="linearGradient235">
      <stop
         style="stop-color:#676756;stop-opacity:1;"
         offset="0"
         id="stop236" />
      <stop
         style="stop-color:#90937c;stop-opacity:1;"
         offset="1"
         id="stop237" />
    </linearGradient>
    <linearGradient
       inkscape:collect="always"
       xlink:href="#linearGradient235"
       id="linearGradient253"
       gradientTransform="scale(1.068312,0.936056)"
       x1="24.983023"
       y1="43.710369"
       x2="24.983023"
       y2="19.705572"
       gradientUnits="userSpaceOnUse" />
    <linearGradient
       inkscape:collect="always"
       xlink:href="#linearGradient311"
       id="linearGradient320"
       gradientUnits="userSpaceOnUse"
       gradientTransform="scale(0.750458,1.33252)"
       x1="32.827568"
       y1="7.9206076"
       x2="60.071049"
       y2="7.8678756" />
    <linearGradient
       inkscape:collect="always"
       xlink:href="#linearGradient356"
       id="linearGradient2892"
       gradientUnits="userSpaceOnUse"
       gradientTransform="matrix(0.806859,0,0,0.67071,-0.104854,18.69867)"
       x1="24.710207"
       y1="16.329607"
       x2="29.842236"
       y2="27.759533" />
    <linearGradient
       y2="8.1000004"
       x2="19.387241"
       y1="6.1438289"
       x1="19.489662"
       gradientUnits="userSpaceOnUse"
       id="linearGradient35276"
       xlink:href="#linearGradient10997"
       inkscape:collect="always" />
    <linearGradient
       y2="8.1000004"
       x2="19.387241"
       y1="6.1438289"
       x1="19.489662"
       gradientUnits="userSpaceOnUse"
       id="linearGradient30712"
       xlink:href="#linearGradient10997"
       inkscape:collect="always" />
    <linearGradient
       id="linearGradient10997">
      <stop
         id="stop10999"
         offset="0"
         style="stop-color:#000000;stop-opacity:1;" />
      <stop
         id="stop11001"
         offset="1"
         style="stop-color:#000000;stop-opacity:0;" />
    </linearGradient>
    <linearGradient
       id="linearGradient2502">
      <stop
         id="stop2504"
         offset="0"
         style="stop-color:#babdb6;stop-opacity:1" />
      <stop
         style="stop-color:#eeeeec;stop-opacity:1;"
         offset="0.26671854"
         id="stop13256" />
      <stop
         id="stop2460"
         offset="0.37147304"
         style="stop-color:white;stop-opacity:1;" />
      <stop
         id="stop2506"
         offset="1"
         style="stop-color:#888a85;stop-opacity:1" />
    </linearGradient>
    <linearGradient
       inkscape:collect="always"
       xlink:href="#linearGradient2502"
       id="linearGradient2937"
       gradientUnits="userSpaceOnUse"
       x1="25.874996"
       y1="-1.066829"
       x2="26.249996"
       y2="43.417534" />
    <linearGradient
       inkscape:collect="always"
       xlink:href="#linearGradient2864"
       id="linearGradient2939"
       gradientUnits="userSpaceOnUse"
       x1="12.3125"
       y1="-13"
       x2="13.875"
       y2="23.687767" />
    <linearGradient
       inkscape:collect="always"
       xlink:href="#linearGradient2944"
       id="linearGradient2941"
       x1="12.67269"
       y1="7.1869569"
       x2="12.67269"
       y2="27.90205"
       gradientUnits="userSpaceOnUse"
       gradientTransform="translate(0,5)" />
  </defs>
  <g
     inkscape:groupmode="layer"
     id="layer2"
     inkscape:label="vectors"
     style="display:inline">
    <g
       transform="matrix(0.216083,0,0,0.226386,-1.393233,-2.889517)"
       id="g1197"
       inkscape:r_cx="true"
       inkscape:r_cy="true">
      <path
         d="M 32.706693,164.36026 C 22.319193,164.36026 13.956693,172.72276 13.956693,183.11026 C 13.956693,193.49776 22.319193,201.86026 32.706693,201.86026 L 205.20669,201.86026 C 215.59419,201.86026 223.95669,193.49776 223.95669,183.11026 C 223.95669,172.72276 215.59419,164.36026 205.20669,164.36026 L 32.706693,164.36026 z "
         style="opacity:0.04787233;fill-rule:evenodd;stroke-width:3pt"
         id="path1196"
         inkscape:r_cx="true"
         inkscape:r_cy="true" />
      <path
         d="M 32.706693,165.61026 C 23.011693,165.61026 15.206693,173.41526 15.206693,183.11026 C 15.206693,192.80526 23.011693,200.61026 32.706693,200.61026 L 205.20669,200.61026 C 214.90169,200.61026 222.70669,192.80526 222.70669,183.11026 C 222.70669,173.41526 214.90169,165.61026 205.20669,165.61026 L 32.706693,165.61026 z "
         style="opacity:0.04787233;fill-rule:evenodd;stroke-width:3pt"
         id="path1195"
         inkscape:r_cx="true"
         inkscape:r_cy="true" />
      <path
         d="M 32.706694,166.86026 C 23.704194,166.86026 16.456694,174.10776 16.456694,183.11026 C 16.456694,192.11276 23.704194,199.36026 32.706694,199.36026 L 205.20669,199.36026 C 214.20919,199.36026 221.45669,192.11276 221.45669,183.11026 C 221.45669,174.10776 214.20919,166.86026 205.20669,166.86026 L 32.706694,166.86026 z "
         style="opacity:0.04787233;fill-rule:evenodd;stroke-width:3pt"
         id="path1194"
         inkscape:r_cx="true"
         inkscape:r_cy="true" />
      <path
         d="M 32.706694,168.11026 C 24.396694,168.11026 17.706694,174.80026 17.706694,183.11026 C 17.706694,191.42026 24.396694,198.11026 32.706694,198.11026 L 205.20669,198.11026 C 213.51669,198.11026 220.20669,191.42026 220.20669,183.11026 C 220.20669,174.80026 213.51669,168.11026 205.20669,168.11026 L 32.706694,168.11026 z "
         style="opacity:0.04787233;fill-rule:evenodd;stroke-width:3pt"
         id="path1193"
         inkscape:r_cx="true"
         inkscape:r_cy="true" />
      <path
         d="M 32.707764,169.36026 C 25.090264,169.36026 18.957764,175.49276 18.957764,183.11026 C 18.957764,190.72776 25.090264,196.86026 32.707764,196.86026 L 205.20618,196.86026 C 212.82368,196.86026 218.95618,190.72776 218.95618,183.11026 C 218.95618,175.49276 212.82368,169.36026 205.20618,169.36026 L 32.707764,169.36026 z "
         style="opacity:0.04787233;fill-rule:evenodd;stroke-width:3pt"
         id="path1192"
         inkscape:r_cx="true"
         inkscape:r_cy="true" />
      <path
         d="M 32.706694,170.61026 C 25.781694,170.61026 20.206694,176.18526 20.206694,183.11026 C 20.206694,190.03526 25.781694,195.61026 32.706694,195.61026 L 205.20669,195.61026 C 212.13169,195.61026 217.70669,190.03526 217.70669,183.11026 C 217.70669,176.18526 212.13169,170.61026 205.20669,170.61026 L 32.706694,170.61026 z "
         style="opacity:0.04787233;fill-rule:evenodd;stroke-width:3pt"
         id="path1191"
         inkscape:r_cx="true"
         inkscape:r_cy="true" />
      <path
         d="M 32.706694,171.86026 C 26.474194,171.86026 21.456694,176.87776 21.456694,183.11026 C 21.456694,189.34276 26.474194,194.36026 32.706694,194.36026 L 205.20669,194.36026 C 211.43919,194.36026 216.45669,189.34276 216.45669,183.11026 C 216.45669,176.87776 211.43919,171.86026 205.20669,171.86026 L 32.706694,171.86026 z "
         style="opacity:0.04787233;fill-rule:evenodd;stroke-width:3pt"
         id="path1190"
         inkscape:r_cx="true"
         inkscape:r_cy="true" />
      <path
         d="M 32.706694,173.11026 C 27.166694,173.11026 22.706694,177.57026 22.706694,183.11026 C 22.706694,188.65026 27.166694,193.11026 32.706694,193.11026 L 205.20669,193.11026 C 210.74669,193.11026 215.20669,188.65026 215.20669,183.11026 C 215.20669,177.57026 210.74669,173.11026 205.20669,173.11026 L 32.706694,173.11026 z "
         style="opacity:0.04787233;fill-rule:evenodd;stroke-width:3pt"
         id="path1189"
         inkscape:r_cx="true"
         inkscape:r_cy="true" />
    </g>
    <path
       d="M 5.4186638,5.45611 C 4.9536872,5.45611 4.6035534,5.6913368 4.6035534,6.182833 L 4.6035534,39.203794 C 4.6035534,39.93094 5.0906584,40.415354 5.7526104,40.415354 L 43.489564,40.415354 C 44.155366,40.415354 44.419872,39.962588 44.419872,39.328794 L 44.419872,10.425912 C 44.419872,9.8829469 44.019585,9.589354 43.520814,9.589354 L 24.41149,9.589354 C 24.074477,9.589354 23.71481,9.390928 23.517009,9.118067 L 20.914778,5.918058 C 20.696913,5.617519 20.272703,5.456125 19.9015,5.456125 L 5.4186638,5.45611 z "
       style="opacity:1;color:black;fill:url(#linearGradient253);fill-opacity:1;fill-rule:evenodd;stroke:#555753;stroke-width:1;stroke-linecap:butt;stroke-linejoin:miter;marker:none;marker-start:none;marker-mid:none;marker-end:none;stroke-miterlimit:4;stroke-dasharray:none;stroke-dashoffset:0;stroke-opacity:1;visibility:visible;display:inline;overflow:visible"
       id="path895"
       sodipodi:nodetypes="ccccccccccccc" />
    <g
       id="g891"
       transform="matrix(0.186703,0,0,0.186703,-21.1073,57.62299)" />
    <path
       style="color:black;fill:url(#linearGradient320);fill-opacity:1;fill-rule:evenodd;stroke:none;stroke-width:0.25pt;stroke-linecap:butt;stroke-linejoin:miter;marker:none;marker-start:none;marker-mid:none;marker-end:none;stroke-miterlimit:4;stroke-dashoffset:0;stroke-opacity:1;visibility:visible;display:inline;overflow:visible"
       d="M 5.0625,7.90625 L 5.0625,36.15625 L 6.03125,31.78125 L 6.25,9.15625 C 6.25,8.4058274 6.7614657,8.03125 7.4869586,8.03125 L 19.09375,8.03125 C 20.655346,8.03125 22.108598,11.21875 24.411417,11.21875 C 30.383036,11.21875 43.749813,11.306338 43.75,11.21875 L 43.75,10.1875 L 24.21875,10.0625 C 22.362615,10.050621 21.088324,6.90625 19.65625,6.90625 L 6.2838336,6.90625 C 5.4685048,6.90625 5.0625,7.2604161 5.0625,7.90625 z "
       id="path315"
       sodipodi:nodetypes="ccccczscczzcc" />
    <path
       style="opacity:0.2;color:black;fill:url(#linearGradient2941);fill-opacity:1;fill-rule:nonzero;stroke:none;stroke-width:1;stroke-linecap:round;stroke-linejoin:round;marker:none;marker-start:none;marker-mid:none;marker-end:none;stroke-miterlimit:4;stroke-dashoffset:1.20000057;stroke-opacity:1;visibility:visible;display:inline;overflow:visible"
       d="M 11,11 L 43,11 L 43,36 L 11,36 L 11,11 z "
       id="rect2934"
       sodipodi:nodetypes="ccccc" />
    <g
       id="g2872"
       transform="translate(0,8)">
      <rect
         ry="1.5026019"
         rx="1.5026019"
         y="3.5"
         x="12.499999"
         height="27.073856"
         width="28.999996"
         id="rect1958"
         style="opacity:1;color:black;fill:url(#linearGradient2937);fill-opacity:1;fill-rule:nonzero;stroke:#555753;stroke-width:0.99999988;stroke-linecap:round;stroke-linejoin:round;marker:none;marker-start:none;marker-mid:none;marker-end:none;stroke-miterlimit:4;stroke-dasharray:none;stroke-dashoffset:1.20000057;stroke-opacity:1;visibility:visible;display:inline;overflow:visible" />
      <rect
         ry="0.45105508"
         rx="0.45105508"
         y="4.4999995"
         x="13.499995"
         height="24.948849"
         width="26.999983"
         id="rect2860"
         style="opacity:1;color:black;fill:none;fill-opacity:1;fill-rule:nonzero;stroke:url(#linearGradient2939);stroke-width:0.99999952;stroke-linecap:round;stroke-linejoin:round;marker:none;marker-start:none;marker-mid:none;marker-end:none;stroke-miterlimit:4;stroke-dasharray:none;stroke-dashoffset:1.20000057;stroke-opacity:1;visibility:visible;display:inline;overflow:visible" />
    </g>
    <path
       sodipodi:nodetypes="cc"
       id="path2878"
       d="M 16.5,16.5 L 37.46875,16.5"
       style="opacity:0.2;fill:none;fill-rule:evenodd;stroke:black;stroke-width:1px;stroke-linecap:round;stroke-linejoin:miter;stroke-opacity:1;display:inline" />
    <path
       sodipodi:nodetypes="cc"
       id="path2880"
       d="M 16.5,19.5 L 37.46875,19.5"
       style="opacity:0.2;fill:none;fill-rule:evenodd;stroke:black;stroke-width:1px;stroke-linecap:round;stroke-linejoin:miter;stroke-opacity:1;display:inline" />
    <path
       sodipodi:nodetypes="cc"
       id="path2882"
       d="M 16.5,22.5 L 37.46875,22.5"
       style="opacity:0.2;fill:none;fill-rule:evenodd;stroke:black;stroke-width:1px;stroke-linecap:round;stroke-linejoin:miter;stroke-opacity:1;display:inline" />
    <path
       style="opacity:0.05;color:black;fill:black;fill-opacity:1;fill-rule:evenodd;stroke:none;stroke-width:0.99999988;stroke-linecap:butt;stroke-linejoin:round;marker:none;marker-start:none;marker-mid:none;marker-end:none;stroke-miterlimit:4;stroke-dasharray:none;stroke-dashoffset:0;stroke-opacity:1;visibility:visible;display:inline;overflow:visible"
       d="M 19.046371,25.96875 C 18.568516,25.96875 18.171592,26.141231 17.957661,26.3125 C 17.883255,26.372068 17.619912,26.585758 17.322581,26.8125 C 17.02525,27.039242 16.678536,27.294116 16.657258,27.3125 C 16.244472,27.669139 15.590136,27.84375 14.8125,27.84375 L 12,27.84375 L 12,35.46875 L 42,35.46875 L 42,25.96875 L 19.046371,25.96875 z "
       id="path2954" />
    <path
       style="opacity:1;color:black;fill:url(#linearGradient4740);fill-opacity:1;fill-rule:evenodd;stroke:#555753;stroke-width:0.99999988;stroke-linecap:butt;stroke-linejoin:round;marker:none;marker-start:none;marker-mid:none;marker-end:none;stroke-miterlimit:4;stroke-dasharray:none;stroke-dashoffset:0;stroke-opacity:1;visibility:visible;display:inline;overflow:visible"
       d="M 2.0236282,29.499437 L 14.898103,29.499437 C 15.636925,29.499437 16.260703,29.297454 16.578647,29.031618 C 16.714853,28.917736 17.841652,28.096752 17.930992,28.027535 C 18.228606,27.796956 18.700874,27.625003 19.267706,27.625003 L 46.173991,27.625003 C 47.176801,27.625003 47.695063,28.703042 47.484882,29.495483 L 44.72546,39.899257 C 44.551522,40.555052 44.019171,40.681456 43.219486,40.681456 L 5.443473,40.681456 C 4.643789,40.681456 4.1553885,40.315646 4,39.915832 L 0.7285534,31.498408 C 0.4113946,30.682359 0.3510672,29.499437 2.0236282,29.499437 z "
       id="rect337"
       sodipodi:nodetypes="czzszssssssss"
       inkscape:r_cx="true"
       inkscape:r_cy="true" />
    <path
       style="color:black;fill:url(#linearGradient2892);fill-opacity:1;fill-rule:evenodd;stroke:none;stroke-width:0.25pt;stroke-linecap:butt;stroke-linejoin:miter;marker:none;marker-start:none;marker-mid:none;marker-end:none;stroke-miterlimit:4;stroke-dashoffset:0;stroke-opacity:1;visibility:visible;display:inline;overflow:visible"
       d="M 19.179997,28.088388 C 17.854432,28.088388 17.457721,29.975139 14.938039,30.013665 C 13.688423,30.032771 2.63052,29.96947 2.13052,29.96947 C 0.7187979,29.96947 1.0420794,30.616323 1.1760152,31.225875 C 1.3085977,31.829268 4.3411486,39.433308 4.3411486,39.433308 C 4.590842,39.984847 4.3231494,40.116308 5.1773161,40.116308 C 5.1773161,40.116308 2.3527919,31.873464 2.3527919,31.535234 C 2.3527919,31.304616 2.1661238,30.95258 2.616656,30.95258 C 3.116656,30.95258 12.84835,30.95258 14.09835,30.95258 C 17.775964,30.95258 17.993814,29.027304 20.093369,29.027304 C 21.310036,29.027304 45.044195,29.061127 45.044195,29.061127 L 46.900349,28.078017 C 46.900349,28.078017 20.46333,28.088388 19.179997,28.088388 z "
       id="path349"
       sodipodi:nodetypes="csssccssssccs"
       inkscape:r_cx="true"
       inkscape:r_cy="true" />
    <rect
       style="color:black;fill:#fffffd;fill-opacity:1;fill-rule:evenodd;stroke:none;stroke-width:0.25pt;stroke-linecap:butt;stroke-linejoin:miter;marker:none;marker-start:none;marker-mid:none;marker-end:none;stroke-miterlimit:4;stroke-dashoffset:0;stroke-opacity:1;visibility:visible;display:inline;overflow:visible"
       id="rect459"
       width="1.25"
       height="1.25"
       x="5.5290294"
       y="7.3598347"
       rx="1.4434735"
       ry="1.25" />
    <g
       inkscape:r_cy="true"
       inkscape:r_cx="true"
       id="g4038"
       inkscape:label="pattern"
       transform="translate(-38.1295,116.4052)" />
    <g
       inkscape:r_cy="true"
       inkscape:r_cx="true"
       id="g4912"
       inkscape:label="pattern"
       transform="translate(-38.1295,170.4052)" />
    <g
       inkscape:r_cy="true"
       inkscape:r_cx="true"
       id="g10822"
       inkscape:label="pattern"
       transform="translate(-38.1295,224.4052)" />
    <g
       transform="translate(-36.89207,273.3147)"
       id="g30615"
       inkscape:r_cx="true"
       inkscape:r_cy="true">
      <g
         style="fill:white;fill-opacity:0.75706213;fill-rule:nonzero;stroke:none;stroke-width:0.99946535;stroke-miterlimit:4"
         id="g30617"
         transform="matrix(1.040764,0,5.449252e-2,1.040764,-8.670199,2.670594)"
         inkscape:export-filename="/home/jimmac/ximian_art/icons/nautilus/suse93/gnome-fs-directory.png"
         inkscape:export-xdpi="74.800003"
         inkscape:export-ydpi="74.800003"
         inkscape:r_cx="true"
         inkscape:r_cy="true" />
      <g
         inkscape:export-ydpi="74.800003"
         inkscape:export-xdpi="74.800003"
         inkscape:export-filename="/home/jimmac/ximian_art/icons/nautilus/suse93/gnome-fs-directory.png"
         style="opacity:0.41477272;fill:url(#linearGradient30712);fill-opacity:1;fill-rule:nonzero;stroke:black;stroke-miterlimit:4"
         transform="matrix(1.040764,0,5.449252e-2,1.365642,-8.358528,0.921788)"
         id="g30619"
         inkscape:r_cx="true"
         inkscape:r_cy="true" />
    </g>
    <g
       transform="translate(-36.89207,327.3147)"
       id="g35216"
       inkscape:r_cx="true"
       inkscape:r_cy="true">
      <g
         style="fill:white;fill-opacity:0.75706213;fill-rule:nonzero;stroke:none;stroke-width:0.99946535;stroke-miterlimit:4"
         id="g35218"
         transform="matrix(1.040764,0,5.449252e-2,1.040764,-8.670199,2.670594)"
         inkscape:export-filename="/home/jimmac/ximian_art/icons/nautilus/suse93/gnome-fs-directory.png"
         inkscape:export-xdpi="74.800003"
         inkscape:export-ydpi="74.800003"
         inkscape:r_cx="true"
         inkscape:r_cy="true" />
      <g
         inkscape:export-ydpi="74.800003"
         inkscape:export-xdpi="74.800003"
         inkscape:export-filename="/home/jimmac/ximian_art/icons/nautilus/suse93/gnome-fs-directory.png"
         style="opacity:0.41477272;fill:url(#linearGradient35276);fill-opacity:1;fill-rule:nonzero;stroke:black;stroke-miterlimit:4"
         transform="matrix(1.040764,0,5.449252e-2,1.365642,-8.358528,0.921788)"
         id="g35220"
         inkscape:r_cx="true"
         inkscape:r_cy="true" />
    </g>
    <rect
       style="opacity:1;color:black;fill:white;fill-opacity:1;fill-rule:nonzero;stroke:none;stroke-width:1;stroke-linecap:round;stroke-linejoin:round;marker:none;marker-start:none;marker-mid:none;marker-end:none;stroke-miterlimit:4;stroke-dasharray:none;stroke-dashoffset:1.20000057;stroke-opacity:1;visibility:visible;display:inline;overflow:visible"
       id="rect1949"
       width="28"
       height="1"
       x="13"
       y="12"
       rx="0.5"
       ry="0.5" />
  </g>
</svg>
