<?xml version="1.0" encoding="UTF-8" standalone="no"?>
<svg
   xmlns="http://www.w3.org/2000/svg"
   height="48"
   width="48"
   viewBox="0 0 48 48"
   version="1.1"
   x="0px"
   y="0px"
   id="svg2">
  <path
     id="path"
     d="M 15.415019,9.8829596 2.7123281,22.913002 c 0,0 -1.1483624,1.106776 -1.1459244,1.773102 -0.00244,0.666326 1.1459244,1.773103 1.1459244,1.773103 L 15.415019,39.489248 c 0,0 1.623799,1.499232 3.459716,1.499232 l 23.337842,0 c 0.945997,0 1.716448,-0.886552 1.716448,-1.984858 l 0,-28.635036 c 0,-1.0954841 -0.770451,-1.9848587 -1.716448,-1.9848587 l -23.337842,0 c -1.835917,-0.00278 -3.459716,1.4992323 -3.459716,1.4992323 z m 17.054765,5.5480024 c 0.872852,-1.010781 2.284534,-1.010781 3.157387,0 l 0.887481,1.027721 c 0.870415,1.007959 0.870415,2.642714 0,3.656318 l -3.952219,4.571103 3.952219,4.571102 c 0.870415,1.013605 0.870415,2.648359 0,3.656318 l -0.885043,1.027722 c -0.875291,1.007959 -2.286973,1.007959 -3.159825,0 l -3.854694,-4.46946 -4.044868,4.684039 c -0.872854,1.010781 -2.282096,1.005134 -3.154949,0 l -0.887482,-1.024899 c -0.870415,-1.013603 -0.870415,-2.645536 0,-3.656317 l 4.132642,-4.788505 -4.132642,-4.788506 c -0.870415,-1.010781 -0.870415,-2.645537 0,-3.656318 l 0.887482,-1.024896 c 0.872853,-1.007959 2.284534,-1.010781 3.154949,0 l 4.044868,4.681214 z"
     style="fill:#010101;fill-opacity:1;fill-rule:nonzero;stroke:none" />
</svg>
