<?xml version="1.0" encoding="UTF-8" standalone="no"?>
<!-- Created with Inkscape (http://www.inkscape.org/) -->

<svg
   xmlns:svg="http://www.w3.org/2000/svg"
   xmlns="http://www.w3.org/2000/svg"
   xmlns:xlink="http://www.w3.org/1999/xlink"
   version="1.0"
   width="96"
   height="96"
   id="svg2408">
  <defs
     id="defs2410">
    <linearGradient
       id="linearGradient5852">
      <stop
         id="stop5854"
         style="stop-color:#f3cb20;stop-opacity:0"
         offset="0" />
      <stop
         id="stop5856"
         style="stop-color:#f3cb20;stop-opacity:1"
         offset="0.22019713" />
      <stop
         id="stop5862"
         style="stop-color:#f3cb20;stop-opacity:1"
         offset="0.56106508" />
      <stop
         id="stop5858"
         style="stop-color:#f3cb20;stop-opacity:0"
         offset="1" />
    </linearGradient>
    <linearGradient
       id="linearGradient3207">
      <stop
         id="stop3209"
         style="stop-color:#ffdf5e;stop-opacity:1"
         offset="0" />
      <stop
         id="stop3211"
         style="stop-color:#ffdf5e;stop-opacity:0"
         offset="1" />
    </linearGradient>
    <linearGradient
       id="linearGradient3224">
      <stop
         id="stop3226"
         style="stop-color:#4b3820;stop-opacity:1"
         offset="0" />
      <stop
         id="stop3228"
         style="stop-color:#19140b;stop-opacity:1"
         offset="1" />
    </linearGradient>
    <linearGradient
       x1="48"
       y1="90"
       x2="48"
       y2="5.9877172"
       id="linearGradient3427"
       xlink:href="#linearGradient3187"
       gradientUnits="userSpaceOnUse" />
    <linearGradient
       id="linearGradient3187">
      <stop
         id="stop3189"
         style="stop-color:#a0a0a0;stop-opacity:1"
         offset="0" />
      <stop
         id="stop3191"
         style="stop-color:#dcdcdc;stop-opacity:1"
         offset="1" />
    </linearGradient>
    <linearGradient
       id="linearGradient3465">
      <stop
         id="stop3467"
         style="stop-color:#919191;stop-opacity:1"
         offset="0" />
      <stop
         id="stop3469"
         style="stop-color:#e6e6e6;stop-opacity:1"
         offset="1" />
    </linearGradient>
    <linearGradient
       x1="45.447727"
       y1="92.539597"
       x2="45.447727"
       y2="7.0165396"
       id="ButtonShadow"
       gradientUnits="userSpaceOnUse"
       gradientTransform="scale(1.0058652,0.994169)">
      <stop
         id="stop3750"
         style="stop-color:#000000;stop-opacity:1"
         offset="0" />
      <stop
         id="stop3752"
         style="stop-color:#000000;stop-opacity:0.58823532"
         offset="1" />
    </linearGradient>
    <linearGradient
       id="linearGradient3737">
      <stop
         id="stop3739"
         style="stop-color:#ffffff;stop-opacity:1"
         offset="0" />
      <stop
         id="stop3741"
         style="stop-color:#ffffff;stop-opacity:0"
         offset="1" />
    </linearGradient>
    <filter
       color-interpolation-filters="sRGB"
       id="filter3174">
      <feGaussianBlur
         id="feGaussianBlur3176"
         stdDeviation="1.71" />
    </filter>
    <linearGradient
       x1="36.357143"
       y1="6"
       x2="36.357143"
       y2="63.893143"
       id="linearGradient3188"
       xlink:href="#linearGradient3737"
       gradientUnits="userSpaceOnUse" />
    <radialGradient
       cx="28"
       cy="28"
       r="4"
       fx="28"
       fy="28"
       id="radialGradient4489"
       xlink:href="#linearGradient3207"
       gradientUnits="userSpaceOnUse"
       gradientTransform="translate(33,19)" />
    <radialGradient
       cx="28"
       cy="28"
       r="4"
       fx="28"
       fy="28"
       id="radialGradient4630"
       xlink:href="#linearGradient3207"
       gradientUnits="userSpaceOnUse"
       gradientTransform="translate(33,7)" />
    <radialGradient
       cx="28"
       cy="28"
       r="4"
       fx="28"
       fy="28"
       id="radialGradient4634"
       xlink:href="#linearGradient3207"
       gradientUnits="userSpaceOnUse"
       gradientTransform="translate(33,-5)" />
    <radialGradient
       cx="28"
       cy="28"
       r="4"
       fx="28"
       fy="28"
       id="radialGradient4640"
       xlink:href="#linearGradient3207"
       gradientUnits="userSpaceOnUse"
       gradientTransform="translate(33,43)" />
    <radialGradient
       cx="28"
       cy="28"
       r="4"
       fx="28"
       fy="28"
       id="radialGradient4642"
       xlink:href="#linearGradient3207"
       gradientUnits="userSpaceOnUse"
       gradientTransform="translate(33,31)" />
    <radialGradient
       cx="28"
       cy="28"
       r="4"
       fx="28"
       fy="28"
       id="radialGradient4654"
       xlink:href="#linearGradient3207"
       gradientUnits="userSpaceOnUse"
       gradientTransform="translate(45,19)" />
    <radialGradient
       cx="28"
       cy="28"
       r="4"
       fx="28"
       fy="28"
       id="radialGradient4656"
       xlink:href="#linearGradient3207"
       gradientUnits="userSpaceOnUse"
       gradientTransform="translate(45,7)" />
    <radialGradient
       cx="28"
       cy="28"
       r="4"
       fx="28"
       fy="28"
       id="radialGradient4658"
       xlink:href="#linearGradient3207"
       gradientUnits="userSpaceOnUse"
       gradientTransform="translate(45,-5)" />
    <radialGradient
       cx="28"
       cy="28"
       r="4"
       fx="28"
       fy="28"
       id="radialGradient4660"
       xlink:href="#linearGradient3207"
       gradientUnits="userSpaceOnUse"
       gradientTransform="translate(45,43)" />
    <radialGradient
       cx="28"
       cy="28"
       r="4"
       fx="28"
       fy="28"
       id="radialGradient4662"
       xlink:href="#linearGradient3207"
       gradientUnits="userSpaceOnUse"
       gradientTransform="translate(45,31)" />
    <radialGradient
       cx="28"
       cy="28"
       r="4"
       fx="28"
       fy="28"
       id="radialGradient4674"
       xlink:href="#linearGradient3207"
       gradientUnits="userSpaceOnUse"
       gradientTransform="translate(21,19)" />
    <radialGradient
       cx="28"
       cy="28"
       r="4"
       fx="28"
       fy="28"
       id="radialGradient4676"
       xlink:href="#linearGradient3207"
       gradientUnits="userSpaceOnUse"
       gradientTransform="translate(21,7)" />
    <radialGradient
       cx="28"
       cy="28"
       r="4"
       fx="28"
       fy="28"
       id="radialGradient4678"
       xlink:href="#linearGradient3207"
       gradientUnits="userSpaceOnUse"
       gradientTransform="translate(21,-5)" />
    <radialGradient
       cx="28"
       cy="28"
       r="4"
       fx="28"
       fy="28"
       id="radialGradient4680"
       xlink:href="#linearGradient3207"
       gradientUnits="userSpaceOnUse"
       gradientTransform="translate(21,43)" />
    <radialGradient
       cx="28"
       cy="28"
       r="4"
       fx="28"
       fy="28"
       id="radialGradient4682"
       xlink:href="#linearGradient3207"
       gradientUnits="userSpaceOnUse"
       gradientTransform="translate(21,31)" />
    <radialGradient
       cx="28"
       cy="28"
       r="4"
       fx="28"
       fy="28"
       id="radialGradient4694"
       xlink:href="#linearGradient3207"
       gradientUnits="userSpaceOnUse"
       gradientTransform="translate(-3,19)" />
    <radialGradient
       cx="28"
       cy="28"
       r="4"
       fx="28"
       fy="28"
       id="radialGradient4696"
       xlink:href="#linearGradient3207"
       gradientUnits="userSpaceOnUse"
       gradientTransform="translate(-3,7)" />
    <radialGradient
       cx="28"
       cy="28"
       r="4"
       fx="28"
       fy="28"
       id="radialGradient4698"
       xlink:href="#linearGradient3207"
       gradientUnits="userSpaceOnUse"
       gradientTransform="translate(-3,-5)" />
    <radialGradient
       cx="28"
       cy="28"
       r="4"
       fx="28"
       fy="28"
       id="radialGradient4700"
       xlink:href="#linearGradient3207"
       gradientUnits="userSpaceOnUse"
       gradientTransform="translate(-3,43)" />
    <radialGradient
       cx="28"
       cy="28"
       r="4"
       fx="28"
       fy="28"
       id="radialGradient4702"
       xlink:href="#linearGradient3207"
       gradientUnits="userSpaceOnUse"
       gradientTransform="translate(-3,31)" />
    <radialGradient
       cx="28"
       cy="28"
       r="4"
       fx="28"
       fy="28"
       id="radialGradient4714"
       xlink:href="#linearGradient3207"
       gradientUnits="userSpaceOnUse"
       gradientTransform="translate(9,19)" />
    <radialGradient
       cx="28"
       cy="28"
       r="4"
       fx="28"
       fy="28"
       id="radialGradient4716"
       xlink:href="#linearGradient3207"
       gradientUnits="userSpaceOnUse"
       gradientTransform="translate(9,7)" />
    <radialGradient
       cx="28"
       cy="28"
       r="4"
       fx="28"
       fy="28"
       id="radialGradient4718"
       xlink:href="#linearGradient3207"
       gradientUnits="userSpaceOnUse"
       gradientTransform="translate(9,-5)" />
    <radialGradient
       cx="28"
       cy="28"
       r="4"
       fx="28"
       fy="28"
       id="radialGradient4720"
       xlink:href="#linearGradient3207"
       gradientUnits="userSpaceOnUse"
       gradientTransform="translate(9,43)" />
    <radialGradient
       cx="28"
       cy="28"
       r="4"
       fx="28"
       fy="28"
       id="radialGradient4722"
       xlink:href="#linearGradient3207"
       gradientUnits="userSpaceOnUse"
       gradientTransform="translate(9,31)" />
    <linearGradient
       x1="15.593941"
       y1="61.447784"
       x2="111.61377"
       y2="61.447784"
       id="linearGradient3282"
       xlink:href="#linearGradient5852"
       gradientUnits="userSpaceOnUse"
       gradientTransform="matrix(0.7031498,0,0,0.699561,3.1971487,4.047236)"
       spreadMethod="reflect" />
    <linearGradient
       x1="43.17857"
       y1="13"
       x2="43.17857"
       y2="83.294571"
       id="linearGradient3287"
       xlink:href="#linearGradient3465"
       gradientUnits="userSpaceOnUse"
       gradientTransform="matrix(1.0294118,0,0,1.0294118,-1.4117647,-1.4117647)" />
    <radialGradient
       cx="47.499996"
       cy="79.698555"
       r="37.05357"
       fx="47.499996"
       fy="79.698555"
       id="radialGradient3292"
       xlink:href="#linearGradient3224"
       gradientUnits="userSpaceOnUse"
       gradientTransform="matrix(1.3277196,1.1881191e-8,-1.0992725e-8,1.2284338,-15.566679,-18.145942)" />
    <linearGradient
       id="linearGradient3737-6">
      <stop
         id="stop3739-4"
         style="stop-color:#ffffff;stop-opacity:1"
         offset="0" />
      <stop
         id="stop3741-9"
         style="stop-color:#ffffff;stop-opacity:0"
         offset="1" />
    </linearGradient>
    <radialGradient
       cx="48"
       cy="90.171875"
       r="42"
       fx="48"
       fy="90.171875"
       id="radialGradient2874"
       xlink:href="#linearGradient3737-6"
       gradientUnits="userSpaceOnUse"
       gradientTransform="matrix(1.1573129,0,0,0.99590774,-7.551021,0.1971319)" />
    <clipPath
       id="clipPath3613">
      <rect
         width="84"
         height="84"
         rx="6"
         ry="6"
         x="6"
         y="6"
         id="rect3615"
         style="fill:#ffffff;fill-opacity:1;fill-rule:nonzero;stroke:none" />
    </clipPath>
    <linearGradient
       x1="48"
       y1="20.220806"
       x2="48"
       y2="138.66119"
       id="linearGradient2908"
       xlink:href="#linearGradient3207"
       gradientUnits="userSpaceOnUse" />
    <filter
       x="-0.192"
       y="-0.192"
       width="1.3839999"
       height="1.3839999"
       color-interpolation-filters="sRGB"
       id="filter3743">
      <feGaussianBlur
         id="feGaussianBlur3745"
         stdDeviation="5.28" />
    </filter>
    <linearGradient
       x1="45.447727"
       y1="92.539597"
       x2="45.447727"
       y2="7.0165396"
       id="ButtonShadow-0"
       gradientUnits="userSpaceOnUse"
       gradientTransform="matrix(1.0058652,0,0,0.994169,100,0)">
      <stop
         id="stop3750-8"
         style="stop-color:#000000;stop-opacity:1"
         offset="0" />
      <stop
         id="stop3752-5"
         style="stop-color:#000000;stop-opacity:0.58823532"
         offset="1" />
    </linearGradient>
    <linearGradient
       x1="32.251034"
       y1="6.1317081"
       x2="32.251034"
       y2="90.238609"
       id="linearGradient3780"
       xlink:href="#ButtonShadow-0"
       gradientUnits="userSpaceOnUse"
       gradientTransform="matrix(1.0238095,0,0,1.0119048,-1.1428571,-98.071429)" />
    <linearGradient
       x1="32.251034"
       y1="6.1317081"
       x2="32.251034"
       y2="90.238609"
       id="linearGradient3772"
       xlink:href="#ButtonShadow-0"
       gradientUnits="userSpaceOnUse"
       gradientTransform="matrix(1.0238095,0,0,1.0119048,-1.1428571,-98.071429)" />
    <linearGradient
       x1="32.251034"
       y1="6.1317081"
       x2="32.251034"
       y2="90.238609"
       id="linearGradient3725"
       xlink:href="#ButtonShadow-0"
       gradientUnits="userSpaceOnUse"
       gradientTransform="matrix(1.0238095,0,0,1.0119048,-1.1428571,-98.071429)" />
    <linearGradient
       x1="32.251034"
       y1="6.1317081"
       x2="32.251034"
       y2="90.238609"
       id="linearGradient3721"
       xlink:href="#ButtonShadow-0"
       gradientUnits="userSpaceOnUse"
       gradientTransform="translate(0,-97)" />
    <linearGradient
       x1="32.251034"
       y1="6.1317081"
       x2="32.251034"
       y2="90.238609"
       id="linearGradient3224-5"
       xlink:href="#ButtonShadow-0"
       gradientUnits="userSpaceOnUse"
       gradientTransform="matrix(1.0238095,0,0,1.0119048,-1.1428571,-98.071429)" />
    <linearGradient
       x1="15.593941"
       y1="61.447784"
       x2="111.61377"
       y2="61.447784"
       id="linearGradient3810"
       xlink:href="#linearGradient5852"
       gradientUnits="userSpaceOnUse"
       gradientTransform="matrix(0.7031498,0,0,0.699561,3.1971487,4.047236)"
       spreadMethod="reflect" />
    <linearGradient
       x1="15.593941"
       y1="61.447784"
       x2="111.61377"
       y2="61.447784"
       id="linearGradient3824"
       xlink:href="#linearGradient5852"
       gradientUnits="userSpaceOnUse"
       gradientTransform="matrix(0.7031498,0,0,0.699561,3.1971487,4.047236)"
       spreadMethod="reflect" />
    <linearGradient
       x1="15.593941"
       y1="61.447784"
       x2="111.61377"
       y2="61.447784"
       id="linearGradient3836"
       xlink:href="#linearGradient5852"
       gradientUnits="userSpaceOnUse"
       gradientTransform="matrix(0.7031498,0,0,0.699561,3.1971487,4.047236)"
       spreadMethod="reflect" />
  </defs>
  <g
     id="layer2"
     style="display:none">
    <rect
       width="86"
       height="85"
       rx="6"
       ry="6"
       x="5"
       y="7"
       id="rect3745"
       style="opacity:0.9;fill:url(#ButtonShadow);fill-opacity:1;fill-rule:nonzero;stroke:none;filter:url(#filter3174)" />
  </g>
  <g
     id="layer6"
     style="display:inline">
    <path
       d="m 12,-95.03125 c -5.5110903,0 -10.03125,4.52016 -10.03125,10.03125 l 0,71 c 0,5.5110902 4.5201598,10.03125 10.03125,10.03125 l 72,0 c 5.51109,0 10.03125,-4.5201597 10.03125,-10.03125 l 0,-71 c 0,-5.51109 -4.52016,-10.03125 -10.03125,-10.03125 l -72,0 z"
       transform="scale(1,-1)"
       id="path3786"
       style="opacity:0.07999998;fill:url(#linearGradient3224-5);fill-opacity:1;fill-rule:nonzero;stroke:none;display:inline" />
    <path
       d="m 12,-94.03125 c -4.971633,0 -9.03125,4.059617 -9.03125,9.03125 l 0,71 c 0,4.9716329 4.0596171,9.03125 9.03125,9.03125 l 72,0 c 4.971633,0 9.03125,-4.059617 9.03125,-9.03125 l 0,-71 c 0,-4.971633 -4.059617,-9.03125 -9.03125,-9.03125 l -72,0 z"
       transform="scale(1,-1)"
       id="path3778"
       style="opacity:0.1;fill:url(#linearGradient3780);fill-opacity:1;fill-rule:nonzero;stroke:none;display:inline" />
    <path
       d="m 12,-93 c -4.4091333,0 -8,3.590867 -8,8 l 0,71 c 0,4.4091333 3.5908667,8 8,8 l 72,0 c 4.409133,0 8,-3.5908667 8,-8 l 0,-71 c 0,-4.409133 -3.590867,-8 -8,-8 l -72,0 z"
       transform="scale(1,-1)"
       id="path3770"
       style="opacity:0.2;fill:url(#linearGradient3772);fill-opacity:1;fill-rule:nonzero;stroke:none;display:inline" />
    <rect
       width="86"
       height="85"
       rx="7"
       ry="7"
       x="5"
       y="-92"
       transform="scale(1,-1)"
       id="rect3723"
       style="opacity:0.3;fill:url(#linearGradient3725);fill-opacity:1;fill-rule:nonzero;stroke:none;display:inline" />
    <rect
       width="84"
       height="84"
       rx="6"
       ry="6"
       x="6"
       y="-91"
       transform="scale(1,-1)"
       id="rect3716"
       style="opacity:0.45;fill:url(#linearGradient3721);fill-opacity:1;fill-rule:nonzero;stroke:none;display:inline" />
  </g>
  <g
     id="layer3">
    <rect
       width="74.10714"
       height="74.25"
       rx="5.5667338"
       ry="5.8378377"
       x="10.446428"
       y="11.5"
       id="rect3461"
       style="fill:url(#radialGradient3292);fill-opacity:1;stroke:none;display:inline" />
    <path
       d="m 19,13 c -3.289406,0 -6,2.710594 -6,6 l 0,58 c 0,3.289406 2.710594,6 6,6 l 58,0 c 3.289406,0 6,-2.710594 6,-6 l 0,-58 c 0,-3.289406 -2.710594,-6 -6,-6 l -58,0 z m 0,4 58,0 c 1.142594,0 2,0.857406 2,2 l 0,58 c 0,1.142594 -0.857406,2 -2,2 l -58,0 c -1.142594,0 -2,-0.857406 -2,-2 l 0,-58 c 0,-1.142594 0.857406,-2 2,-2 z"
       id="rect3222-3"
       style="font-size:medium;font-style:normal;font-variant:normal;font-weight:normal;font-stretch:normal;text-indent:0;text-align:start;text-decoration:none;line-height:normal;letter-spacing:normal;word-spacing:normal;text-transform:none;direction:ltr;block-progression:tb;writing-mode:lr-tb;text-anchor:start;opacity:0.15;color:#000000;fill:#000000;fill-opacity:1;stroke:none;stroke-width:4;marker:none;visibility:visible;display:inline;overflow:visible;enable-background:accumulate;font-family:Abandoned Bitplane;-inkscape-font-specification:Abandoned Bitplane" />
    <path
       d="m 17,14 c -1.662,0 -3,1.338 -3,3 l 0,62 c 0,1.662 1.338,3 3,3 l 62,0 c 1.662,0 3,-1.338 3,-3 l 0,-62 c 0,-1.662 -1.338,-3 -3,-3 l -62,0 z m 0,1.9375 62,0 c 0.618163,0 1.0625,0.444337 1.0625,1.0625 l 0,62 c 0,0.618163 -0.444337,1.0625 -1.0625,1.0625 l -62,0 c -0.618163,0 -1.0625,-0.444337 -1.0625,-1.0625 l 0,-62 c 0,-0.618163 0.444337,-1.0625 1.0625,-1.0625 z"
       id="rect3981"
       style="opacity:0.3;color:#000000;fill:#000000;fill-opacity:1;fill-rule:nonzero;stroke:none;stroke-width:1;marker:none;visibility:visible;display:inline;overflow:visible;enable-background:accumulate" />
    <path
       d="m 17,14 c -1.662,0 -3,1.338 -3,3 l 0,62 c 0,1.662 1.338,3 3,3 l 62,0 c 1.662,0 3,-1.338 3,-3 l 0,-62 c 0,-1.662 -1.338,-3 -3,-3 l -62,0 z m 0,0.96875 62,0 c 1.140081,0 2.03125,0.891169 2.03125,2.03125 l 0,62 c 0,1.140081 -0.891169,2.03125 -2.03125,2.03125 l -62,0 c -1.140081,0 -2.03125,-0.891169 -2.03125,-2.03125 l 0,-62 c 0,-1.140081 0.891169,-2.03125 2.03125,-2.03125 z"
       id="rect3977"
       style="opacity:0.6;color:#000000;fill:#000000;fill-opacity:1;fill-rule:nonzero;stroke:none;stroke-width:1;marker:none;visibility:visible;display:inline;overflow:visible;enable-background:accumulate" />
  </g>
  <g
     id="layer5">
    <g
       id="g4608">
      <path
         d="M 73,12.000003 73,82"
         id="path4592"
         style="opacity:0.07999998;fill:none;stroke:#f3c770;stroke-width:1.99999976;stroke-linecap:butt;stroke-linejoin:miter;stroke-miterlimit:4;stroke-opacity:1;stroke-dasharray:none;display:inline" />
      <path
         d="M 61,12.000003 61,82"
         id="path4594"
         style="opacity:0.07999998;fill:none;stroke:#f3c770;stroke-width:1.99999976;stroke-linecap:butt;stroke-linejoin:miter;stroke-miterlimit:4;stroke-opacity:1;stroke-dasharray:none;display:inline" />
      <path
         d="M 49,12.000003 49,82"
         id="path4596"
         style="opacity:0.07999998;fill:none;stroke:#f3c770;stroke-width:1.99999976;stroke-linecap:butt;stroke-linejoin:miter;stroke-miterlimit:4;stroke-opacity:1;stroke-dasharray:none;display:inline" />
      <path
         d="M 37,12.000003 37,82"
         id="path4598"
         style="opacity:0.07999998;fill:none;stroke:#f3c770;stroke-width:1.99999976;stroke-linecap:butt;stroke-linejoin:miter;stroke-miterlimit:4;stroke-opacity:1;stroke-dasharray:none;display:inline" />
      <path
         d="M 25,12.000003 25,82"
         id="path4600"
         style="opacity:0.07999998;fill:none;stroke:#f3c770;stroke-width:1.99999976;stroke-linecap:butt;stroke-linejoin:miter;stroke-miterlimit:4;stroke-opacity:1;stroke-dasharray:none;display:inline" />
    </g>
    <g
       id="g4621">
      <path
         d="m 13,71 69.999997,0"
         id="path4578"
         style="opacity:0.07999998;fill:none;stroke:#f3c770;stroke-width:1.99999976;stroke-linecap:butt;stroke-linejoin:miter;stroke-miterlimit:4;stroke-opacity:1;stroke-dasharray:none;display:inline" />
      <path
         d="m 13,59 69.999997,0"
         id="path4576"
         style="opacity:0.07999998;fill:none;stroke:#f3c770;stroke-width:1.99999976;stroke-linecap:butt;stroke-linejoin:miter;stroke-miterlimit:4;stroke-opacity:1;stroke-dasharray:none;display:inline" />
      <path
         d="m 13,47 69.999997,0"
         id="path4574"
         style="opacity:0.07999998;fill:none;stroke:#f3c770;stroke-width:1.99999976;stroke-linecap:butt;stroke-linejoin:miter;stroke-miterlimit:4;stroke-opacity:1;stroke-dasharray:none;display:inline" />
      <path
         d="m 13,35 69.999997,0"
         id="path4572"
         style="opacity:0.07999998;fill:none;stroke:#f3c770;stroke-width:1.99999976;stroke-linecap:butt;stroke-linejoin:miter;stroke-miterlimit:4;stroke-opacity:1;stroke-dasharray:none;display:inline" />
      <path
         d="m 13,23 69.999997,0"
         id="path4570"
         style="opacity:0.07999998;fill:none;stroke:#f3c770;stroke-width:1.99999976;stroke-linecap:butt;stroke-linejoin:miter;stroke-miterlimit:4;stroke-opacity:1;stroke-dasharray:none;display:inline" />
    </g>
    <path
       d="m 13,5.0000001 69.999997,0"
       id="path5077"
       style="opacity:0.07999998;fill:none;stroke:#f3c770;stroke-width:1.99999976;stroke-linecap:butt;stroke-linejoin:miter;stroke-miterlimit:4;stroke-opacity:1;stroke-dasharray:none;display:inline" />
    <g
       id="g4724"
       style="opacity:0.75">
      <path
         d="m 57,46 8,0 0,2 -8,0 0,-2 z m 5,-3 0,8 -2,0 0,-8 2,0 z"
         id="path5019"
         style="opacity:0.15;fill:url(#radialGradient4489);fill-opacity:1;fill-rule:nonzero;stroke:none" />
      <path
         d="m 57,34 8,0 0,2 -8,0 0,-2 z m 5,-3 0,8 -2,0 0,-8 2,0 z"
         id="path4628"
         style="opacity:0.15;fill:url(#radialGradient4630);fill-opacity:1;fill-rule:nonzero;stroke:none" />
      <path
         d="m 57,22 8,0 0,2 -8,0 0,-2 z m 5,-3 0,8 -2,0 0,-8 2,0 z"
         id="path4632"
         style="opacity:0.15;fill:url(#radialGradient4634);fill-opacity:1;fill-rule:nonzero;stroke:none" />
      <path
         d="m 57,70 8,0 0,2 -8,0 0,-2 z m 5,-3 0,8 -2,0 0,-8 2,0 z"
         id="path4636"
         style="opacity:0.15;fill:url(#radialGradient4640);fill-opacity:1;fill-rule:nonzero;stroke:none" />
      <path
         d="m 57,58 8,0 0,2 -8,0 0,-2 z m 5,-3 0,8 -2,0 0,-8 2,0 z"
         id="path4638"
         style="opacity:0.15;fill:url(#radialGradient4642);fill-opacity:1;fill-rule:nonzero;stroke:none" />
      <path
         d="m 69,46 8,0 0,2 -8,0 0,-2 z m 5,-3 0,8 -2,0 0,-8 2,0 z"
         id="path4644"
         style="opacity:0.15;fill:url(#radialGradient4654);fill-opacity:1;fill-rule:nonzero;stroke:none" />
      <path
         d="m 69,34 8,0 0,2 -8,0 0,-2 z m 5,-3 0,8 -2,0 0,-8 2,0 z"
         id="path4646"
         style="opacity:0.15;fill:url(#radialGradient4656);fill-opacity:1;fill-rule:nonzero;stroke:none" />
      <path
         d="m 69,22 8,0 0,2 -8,0 0,-2 z m 5,-3 0,8 -2,0 0,-8 2,0 z"
         id="path4648"
         style="opacity:0.15;fill:url(#radialGradient4658);fill-opacity:1;fill-rule:nonzero;stroke:none" />
      <path
         d="m 69,70 8,0 0,2 -8,0 0,-2 z m 5,-3 0,8 -2,0 0,-8 2,0 z"
         id="path4650"
         style="opacity:0.15;fill:url(#radialGradient4660);fill-opacity:1;fill-rule:nonzero;stroke:none" />
      <path
         d="m 69,58 8,0 0,2 -8,0 0,-2 z m 5,-3 0,8 -2,0 0,-8 2,0 z"
         id="path4652"
         style="opacity:0.15;fill:url(#radialGradient4662);fill-opacity:1;fill-rule:nonzero;stroke:none" />
      <path
         d="m 45,46 8,0 0,2 -8,0 0,-2 z m 5,-3 0,8 -2,0 0,-8 2,0 z"
         id="path4664"
         style="opacity:0.15;fill:url(#radialGradient4674);fill-opacity:1;fill-rule:nonzero;stroke:none" />
      <path
         d="m 45,34 8,0 0,2 -8,0 0,-2 z m 5,-3 0,8 -2,0 0,-8 2,0 z"
         id="path4666"
         style="opacity:0.15;fill:url(#radialGradient4676);fill-opacity:1;fill-rule:nonzero;stroke:none" />
      <path
         d="m 45,22 8,0 0,2 -8,0 0,-2 z m 5,-3 0,8 -2,0 0,-8 2,0 z"
         id="path4668"
         style="opacity:0.15;fill:url(#radialGradient4678);fill-opacity:1;fill-rule:nonzero;stroke:none" />
      <path
         d="m 45,70 8,0 0,2 -8,0 0,-2 z m 5,-3 0,8 -2,0 0,-8 2,0 z"
         id="path4670"
         style="opacity:0.15;fill:url(#radialGradient4680);fill-opacity:1;fill-rule:nonzero;stroke:none" />
      <path
         d="m 45,58 8,0 0,2 -8,0 0,-2 z m 5,-3 0,8 -2,0 0,-8 2,0 z"
         id="path4672"
         style="opacity:0.15;fill:url(#radialGradient4682);fill-opacity:1;fill-rule:nonzero;stroke:none" />
      <path
         d="m 21,46 8,0 0,2 -8,0 0,-2 z m 5,-3 0,8 -2,0 0,-8 2,0 z"
         id="path4684"
         style="opacity:0.15;fill:url(#radialGradient4694);fill-opacity:1;fill-rule:nonzero;stroke:none" />
      <path
         d="m 21,34 8,0 0,2 -8,0 0,-2 z m 5,-3 0,8 -2,0 0,-8 2,0 z"
         id="path4686"
         style="opacity:0.15;fill:url(#radialGradient4696);fill-opacity:1;fill-rule:nonzero;stroke:none" />
      <path
         d="m 21,22 8,0 0,2 -8,0 0,-2 z m 5,-3 0,8 -2,0 0,-8 2,0 z"
         id="path4688"
         style="opacity:0.15;fill:url(#radialGradient4698);fill-opacity:1;fill-rule:nonzero;stroke:none" />
      <path
         d="m 21,70 8,0 0,2 -8,0 0,-2 z m 5,-3 0,8 -2,0 0,-8 2,0 z"
         id="path4690"
         style="opacity:0.15;fill:url(#radialGradient4700);fill-opacity:1;fill-rule:nonzero;stroke:none" />
      <path
         d="m 21,58 8,0 0,2 -8,0 0,-2 z m 5,-3 0,8 -2,0 0,-8 2,0 z"
         id="path4692"
         style="opacity:0.15;fill:url(#radialGradient4702);fill-opacity:1;fill-rule:nonzero;stroke:none" />
      <path
         d="m 33,46 8,0 0,2 -8,0 0,-2 z m 5,-3 0,8 -2,0 0,-8 2,0 z"
         id="path4704"
         style="opacity:0.15;fill:url(#radialGradient4714);fill-opacity:1;fill-rule:nonzero;stroke:none" />
      <path
         d="m 33,34 8,0 0,2 -8,0 0,-2 z m 5,-3 0,8 -2,0 0,-8 2,0 z"
         id="path4706"
         style="opacity:0.15;fill:url(#radialGradient4716);fill-opacity:1;fill-rule:nonzero;stroke:none" />
      <path
         d="m 33,22 8,0 0,2 -8,0 0,-2 z m 5,-3 0,8 -2,0 0,-8 2,0 z"
         id="path4708"
         style="opacity:0.15;fill:url(#radialGradient4718);fill-opacity:1;fill-rule:nonzero;stroke:none" />
      <path
         d="m 33,70 8,0 0,2 -8,0 0,-2 z m 5,-3 0,8 -2,0 0,-8 2,0 z"
         id="path4710"
         style="opacity:0.15;fill:url(#radialGradient4720);fill-opacity:1;fill-rule:nonzero;stroke:none" />
      <path
         d="m 33,58 8,0 0,2 -8,0 0,-2 z m 5,-3 0,8 -2,0 0,-8 2,0 z"
         id="path4712"
         style="opacity:0.15;fill:url(#radialGradient4722);fill-opacity:1;fill-rule:nonzero;stroke:none" />
    </g>
  </g>
  <g
     id="layer4">
    <path
       d="M 30,27.25 25.65625,52 11,52 l 0,2 16.34375,0 3.59375,-20.59375 5.15625,31.75 0.984375,5.446429 0.984375,-5.446429 2.21875,-15.09375 7.625,0 1.125,-3.5 3.5625,12.875 2.625,-5.53125 31.5,0 0,-2 -32.75,0 -0.875,1.8125 -3.9375,-14.1875 -2.71875,8.53125 -7.875,0 -1.53125,10.34375 -5.0625,-31.125 L 31,22.176339 30,27.25 z"
       id="path3267"
       style="fill:url(#linearGradient3282);fill-opacity:1;fill-rule:evenodd;stroke:none;display:inline" />
    <text
       x="49.180752"
       y="80.506767"
       transform="scale(1.0335086,0.9675778)"
       id="text5780"
       xml:space="preserve"
       style="font-size:10.9480629px;font-style:normal;font-variant:normal;font-weight:bold;font-stretch:normal;text-align:start;line-height:100%;writing-mode:lr-tb;text-anchor:start;opacity:0.8;fill:#f0c512;fill-opacity:1;stroke:none;display:inline;font-family:Liberation Sans;-inkscape-font-specification:Liberation Sans Bold"><tspan
         x="42.0"
         y="80.506767"
         id="tspan5782">-20 dB</tspan></text>
    <rect
       width="9"
       height="2"
       rx="0.89999998"
       ry="0.66666669"
       x="66"
       y="36"
       id="rect5784"
       style="fill:#f0c512;fill-opacity:1;fill-rule:nonzero;stroke:none;display:inline" />
    <rect
       width="9"
       height="2"
       rx="0.89999998"
       ry="0.66666669"
       x="66"
       y="32"
       id="rect5814"
       style="fill:#f0c512;fill-opacity:1;fill-rule:nonzero;stroke:none;display:inline" />
    <rect
       width="9"
       height="2"
       rx="0.89999998"
       ry="0.66666669"
       x="66"
       y="28"
       id="rect5816"
       style="opacity:0.5;fill:#f0c512;fill-opacity:1;fill-rule:nonzero;stroke:none;display:inline" />
    <rect
       width="9"
       height="2"
       rx="0.89999998"
       ry="0.66666669"
       x="66"
       y="24"
       id="rect5818"
       style="opacity:0.5;fill:#f0c512;fill-opacity:1;fill-rule:nonzero;stroke:none;display:inline" />
    <rect
       width="9"
       height="2"
       rx="0.89999998"
       ry="0.66666669"
       x="66"
       y="20"
       id="rect5820"
       style="opacity:0.5;fill:#f0c512;fill-opacity:1;fill-rule:nonzero;stroke:none;display:inline" />
    <path
       d="m 30.625,19.0625 a 1.085354,1.085354 0 0 0 -0.03125,0.03125 c -0.74125,0.116604 -1.411317,0.45412 -1.84375,0.9375 -0.432433,0.48338 -0.661566,1.065282 -0.8125,1.59375 -0.301868,1.056937 -0.332405,2.086267 -0.5,2.65625 a 1.085354,1.085354 0 0 0 -0.03125,0.125 C 25.876976,32.560978 24.515703,40.727406 23.0625,48.875 18.895762,48.89527 14.679563,48.79839 10.46875,48.9375 A 1.085354,1.085354 0 0 0 10.25,48.96875 c -1.2267559,0.281867 -1.9667737,1.308637 -2.21875,2.25 -0.227595,0.850276 -0.1780997,1.661952 -0.125,2.34375 0.00569,0.07304 -0.037213,0.180684 -0.03125,0.25 l 0.0625,0 c -0.053524,1.058478 0.3875384,2.045875 1.125,2.625 0.7349255,0.577134 1.715276,0.804873 2.6875,0.65625 l 0,0.03125 c 5.345947,-0.04171 10.760408,0.08465 16.15625,-0.0625 A 1.085354,1.085354 0 0 0 28.21875,57 c 1.385706,-0.448726 2.027973,-1.70929 2.25,-2.75 0.20073,-0.940886 0.246228,-1.776839 0.375,-2.34375 1.055507,6.60058 2.012798,13.222747 3.34375,19.78125 a 1.085354,1.085354 0 0 0 0.09375,0.25 c 0.660384,1.416144 2.242612,1.891309 3.5,1.59375 1.177299,-0.278606 2.210115,-1.341224 2.3125,-2.75 l 0.0625,0 c 0.01647,-0.08276 0.01495,-0.167224 0.03125,-0.25 1.136858,-5.77257 1.876229,-11.589796 2.75,-17.34375 1.519136,-0.0021 3.063355,-0.0013 4.65625,-0.0625 0.728956,2.538545 1.319963,5.189018 2.25,7.78125 a 1.085354,1.085354 0 0 0 0.09375,0.1875 c 1.386672,2.299796 4.895476,1.54934 5.65625,-0.875 L 55.625,60.25 57.15625,57.03125 C 67.139203,57.014107 77.135922,57.07168 87.125,57 a 1.085354,1.085354 0 0 0 0.1875,-0.03125 C 88.45935,56.751051 89.262826,55.883105 89.59375,55 c 0.279125,-0.744873 0.251006,-1.486818 0.1875,-2.1875 l 0.03125,0 c 0.02167,-0.09677 -0.01262,-0.184978 0,-0.28125 0.0056,-0.04279 -0.0039,-0.08237 0,-0.125 0.186059,-2.049722 -1.560871,-3.885485 -3.65625,-3.59375 l 0,-0.03125 -31.1875,0 c -1.011532,-3.522908 -1.882705,-7.140915 -3.0625,-10.6875 a 1.085354,1.085354 0 0 0 -0.09375,-0.1875 c -1.420132,-2.506554 -5.354147,-1.48609 -5.75,1.21875 l -0.03125,0 -1.8125,5.84375 c -1.987426,0.01555 -4.067154,-0.101819 -6.21875,0.125 -0.0096,-0.13294 -0.01893,-0.229416 -0.03125,-0.375 C 37.945257,44.441015 37.858185,44.1449 37.75,43.8125 l 0.03125,0 C 36.505376,36.321804 35.515161,28.730547 33.9375,21.21875 A 1.085354,1.085354 0 0 0 33.90625,21.0625 c -0.502986,-1.348546 -1.884647,-2.151481 -3.28125,-2 z"
       id="path3834"
       style="opacity:0.05;fill:url(#linearGradient3836);fill-opacity:1;fill-rule:evenodd;stroke:none;display:inline" />
    <path
       d="m 30.75,20.15625 c -2.109339,0.331814 -1.814072,2.871229 -2.273683,4.434346 -1.582976,8.441091 -2.991101,16.921614 -4.507567,25.378154 -4.485987,0.043 -8.999745,-0.08514 -13.46875,0.0625 -1.6709967,0.383939 -1.6479439,2.330367 -1.53125,3.686928 -0.2165694,1.5317 1.372958,2.641416 2.794885,2.313072 5.368539,-0.04189 10.752302,0.08365 16.111365,-0.0625 1.951723,-0.632016 1.476981,-3.058415 1.960418,-4.634446 0.336111,-1.934351 0.672221,-3.868703 1.008332,-5.803054 1.473298,8.65667 2.668057,17.372248 4.40625,25.9375 0.862101,1.84871 3.907855,1.125599 3.850311,-0.90677 1.216568,-6.114883 1.977202,-12.305017 2.930939,-18.46823 2.122927,-0.04177 4.2624,0.08356 6.375,-0.0625 0.851829,2.820562 1.478563,5.740114 2.46875,8.5 0.937034,1.554071 3.401014,0.976647 3.778486,-0.735363 0.615505,-1.286129 1.231009,-2.572258 1.846514,-3.858387 10.206611,-0.02103 20.426852,0.04193 30.625,-0.03125 1.538818,-0.292103 1.821377,-2.03148 1.625,-3.336361 0.344709,-1.5392 -1.035713,-3.028681 -2.603976,-2.694889 -10.663258,0 -21.326516,0 -31.989774,0 C 53.035898,46.074591 52.120032,42.180193 50.875,38.4375 49.913725,36.740835 47.150533,37.549661 47.077534,39.452392 46.385023,41.645344 45.692511,43.838297 45,46.03125 c -2.380161,0.07949 -4.804619,-0.161585 -7.15625,0.125 -1.217198,1.182955 -0.74069,-1.407932 -1.115326,-2.169508 C 35.447913,36.46882 34.441269,28.895056 32.875,21.4375 32.559042,20.590391 31.647033,20.058954 30.75,20.15625 z"
       id="path3816"
       style="opacity:0.07999998;fill:url(#linearGradient3824);fill-opacity:1;fill-rule:evenodd;stroke:none;display:inline" />
    <path
       d="m 30.875,21.09375 a 1.088902,1.088902 0 0 0 -0.9375,0.875 l -1,5.0625 a 1.088902,1.088902 0 0 0 0,0.03125 l -4.1875,23.84375 -13.75,0 A 1.088902,1.088902 0 0 0 9.90625,52 l 0,2 A 1.088902,1.088902 0 0 0 11,55.09375 l 16.34375,0 a 1.088902,1.088902 0 0 0 1.0625,-0.90625 l 2.5,-14.28125 4.125,25.4375 L 36,70.78125 a 1.088902,1.088902 0 0 0 2.125,0 l 1,-5.4375 a 1.088902,1.088902 0 0 0 0,-0.03125 l 2.09375,-14.15625 6.6875,0 a 1.088902,1.088902 0 0 0 1.03125,-0.75 l 2.59375,9.3125 a 1.088902,1.088902 0 0 0 2.03125,0.1875 L 55.90625,55 l 30.8125,0 a 1.088902,1.088902 0 0 0 1.09375,-1.09375 l 0,-2 A 1.088902,1.088902 0 0 0 86.71875,50.8125 l -32.75,0 a 1.088902,1.088902 0 0 0 -0.5,0.125 L 50.21875,39.25 A 1.088902,1.088902 0 0 0 48.125,39.1875 l -2.46875,7.78125 -7.09375,0 A 1.088902,1.088902 0 0 0 37.5,47.90625 l -0.53125,3.5 -3.9375,-24.3125 a 1.088902,1.088902 0 0 0 0,-0.03125 L 32.0625,21.96875 a 1.088902,1.088902 0 0 0 -1.1875,-0.875 z"
       id="path3808"
       style="opacity:0.2;fill:url(#linearGradient3810);fill-opacity:1;fill-rule:evenodd;stroke:none;display:inline" />
  </g>
  <g
     id="layer1"
     style="display:inline">
    <path
       d="M 12,6 C 8.676,6 6,8.676 6,12 l 0,2 0,68 0,2 c 0,0.334721 0.04135,0.6507 0.09375,0.96875 0.0487,0.295596 0.09704,0.596915 0.1875,0.875 0.00988,0.03038 0.020892,0.0636 0.03125,0.09375 0.098865,0.287771 0.2348802,0.547452 0.375,0.8125 0.1445918,0.273507 0.3156161,0.535615 0.5,0.78125 0.1843839,0.245635 0.3737765,0.473472 0.59375,0.6875 0.439947,0.428056 0.94291,0.814526 1.5,1.09375 0.278545,0.139612 0.5734731,0.246947 0.875,0.34375 -0.2562018,-0.100222 -0.4867109,-0.236272 -0.71875,-0.375 -0.00741,-0.0044 -0.023866,0.0045 -0.03125,0 -0.031933,-0.0193 -0.062293,-0.04251 -0.09375,-0.0625 -0.120395,-0.0767 -0.2310226,-0.163513 -0.34375,-0.25 -0.1061728,-0.0808 -0.2132809,-0.161112 -0.3125,-0.25 C 8.4783201,88.557317 8.3087904,88.373362 8.15625,88.1875 8.0486711,88.057245 7.9378561,87.922215 7.84375,87.78125 7.818661,87.74287 7.805304,87.69538 7.78125,87.65625 7.716487,87.553218 7.6510225,87.451733 7.59375,87.34375 7.4927417,87.149044 7.3880752,86.928049 7.3125,86.71875 7.30454,86.69694 7.288911,86.6782 7.28125,86.65625 7.2494249,86.5643 7.2454455,86.469419 7.21875,86.375 7.1884177,86.268382 7.1483606,86.171969 7.125,86.0625 7.0521214,85.720988 7,85.364295 7,85 L 7,83 7,15 7,13 C 7,10.218152 9.2181517,8 12,8 l 2,0 68,0 2,0 c 2.781848,0 5,2.218152 5,5 l 0,2 0,68 0,2 c 0,0.364295 -0.05212,0.720988 -0.125,1.0625 -0.04415,0.206893 -0.08838,0.397658 -0.15625,0.59375 -0.0077,0.02195 -0.0233,0.04069 -0.03125,0.0625 -0.06274,0.173739 -0.138383,0.367449 -0.21875,0.53125 -0.04158,0.0828 -0.07904,0.169954 -0.125,0.25 -0.0546,0.09721 -0.126774,0.18835 -0.1875,0.28125 -0.09411,0.140965 -0.204921,0.275995 -0.3125,0.40625 -0.143174,0.17445 -0.303141,0.346998 -0.46875,0.5 -0.01117,0.0102 -0.01998,0.02115 -0.03125,0.03125 -0.138386,0.125556 -0.285091,0.234436 -0.4375,0.34375 -0.102571,0.07315 -0.204318,0.153364 -0.3125,0.21875 -0.0074,0.0045 -0.02384,-0.0044 -0.03125,0 -0.232039,0.138728 -0.462548,0.274778 -0.71875,0.375 0.301527,-0.0968 0.596455,-0.204138 0.875,-0.34375 0.55709,-0.279224 1.060053,-0.665694 1.5,-1.09375 0.219973,-0.214028 0.409366,-0.441865 0.59375,-0.6875 0.184384,-0.245635 0.355408,-0.507743 0.5,-0.78125 0.14012,-0.265048 0.276135,-0.524729 0.375,-0.8125 0.01041,-0.03078 0.02133,-0.06274 0.03125,-0.09375 0.09046,-0.278085 0.1388,-0.579404 0.1875,-0.875 C 89.95865,84.6507 90,84.334721 90,84 l 0,-2 0,-68 0,-2 C 90,8.676 87.324,6 84,6 L 12,6 z"
       id="rect3728"
       style="opacity:0.5;fill:url(#linearGradient3188);fill-opacity:1;fill-rule:nonzero;stroke:none" />
    <path
       d="M 12,6 C 8.676,6 6,8.676 6,12 l 0,72 c 0,3.324 2.676,6 6,6 l 72,0 c 3.324,0 6,-2.676 6,-6 L 90,12 C 90,8.676 87.324,6 84,6 L 12,6 z m 5,7 62,0 c 2.216001,0 4,1.784 4,4 l 0,62 c 10e-7,2.216001 -1.784,4 -4,4 l -62,0 c -2.215999,10e-7 -4,-1.784 -4,-4 l 0,-62 c 0,-2.215999 1.784,-4 4,-4 z"
       id="path4156"
       style="fill:url(#linearGradient3427);fill-opacity:1;fill-rule:nonzero;stroke:none;display:inline" />
    <path
       d="M 12,6 C 8.676,6 6,8.676 6,12 l 0,2 0,68 0,2 c 0,0.334721 0.04135,0.6507 0.09375,0.96875 0.0487,0.295596 0.09704,0.596915 0.1875,0.875 0.00988,0.03038 0.020892,0.0636 0.03125,0.09375 0.098865,0.287771 0.2348802,0.547452 0.375,0.8125 0.1445918,0.273507 0.3156161,0.535615 0.5,0.78125 0.1843839,0.245635 0.3737765,0.473472 0.59375,0.6875 0.439947,0.428056 0.94291,0.814526 1.5,1.09375 0.278545,0.139612 0.5734731,0.246947 0.875,0.34375 -0.2562018,-0.100222 -0.4867109,-0.236272 -0.71875,-0.375 -0.00741,-0.0044 -0.023866,0.0045 -0.03125,0 -0.031933,-0.0193 -0.062293,-0.04251 -0.09375,-0.0625 -0.120395,-0.0767 -0.2310226,-0.163513 -0.34375,-0.25 -0.1061728,-0.0808 -0.2132809,-0.161112 -0.3125,-0.25 C 8.4783201,88.557317 8.3087904,88.373362 8.15625,88.1875 8.0486711,88.057245 7.9378561,87.922215 7.84375,87.78125 7.818661,87.74287 7.805304,87.69538 7.78125,87.65625 7.716487,87.553218 7.6510225,87.451733 7.59375,87.34375 7.4927417,87.149044 7.3880752,86.928049 7.3125,86.71875 7.30454,86.69694 7.288911,86.6782 7.28125,86.65625 7.2494249,86.5643 7.2454455,86.469419 7.21875,86.375 7.1884177,86.268382 7.1483606,86.171969 7.125,86.0625 7.0521214,85.720988 7,85.364295 7,85 L 7,83 7,15 7,13 C 7,10.218152 9.2181517,8 12,8 l 2,0 68,0 2,0 c 2.781848,0 5,2.218152 5,5 l 0,2 0,68 0,2 c 0,0.364295 -0.05212,0.720988 -0.125,1.0625 -0.04415,0.206893 -0.08838,0.397658 -0.15625,0.59375 -0.0077,0.02195 -0.0233,0.04069 -0.03125,0.0625 -0.06274,0.173739 -0.138383,0.367449 -0.21875,0.53125 -0.04158,0.0828 -0.07904,0.169954 -0.125,0.25 -0.0546,0.09721 -0.126774,0.18835 -0.1875,0.28125 -0.09411,0.140965 -0.204921,0.275995 -0.3125,0.40625 -0.143174,0.17445 -0.303141,0.346998 -0.46875,0.5 -0.01117,0.0102 -0.01998,0.02115 -0.03125,0.03125 -0.138386,0.125556 -0.285091,0.234436 -0.4375,0.34375 -0.102571,0.07315 -0.204318,0.153364 -0.3125,0.21875 -0.0074,0.0045 -0.02384,-0.0044 -0.03125,0 -0.232039,0.138728 -0.462548,0.274778 -0.71875,0.375 0.301527,-0.0968 0.596455,-0.204138 0.875,-0.34375 0.55709,-0.279224 1.060053,-0.665694 1.5,-1.09375 0.219973,-0.214028 0.409366,-0.441865 0.59375,-0.6875 0.184384,-0.245635 0.355408,-0.507743 0.5,-0.78125 0.14012,-0.265048 0.276135,-0.524729 0.375,-0.8125 0.01041,-0.03078 0.02133,-0.06274 0.03125,-0.09375 0.09046,-0.278085 0.1388,-0.579404 0.1875,-0.875 C 89.95865,84.6507 90,84.334721 90,84 l 0,-2 0,-68 0,-2 C 90,8.676 87.324,6 84,6 L 12,6 z"
       id="path4152"
       style="opacity:0.5;fill:url(#linearGradient3188);fill-opacity:1;fill-rule:nonzero;stroke:none;display:inline" />
    <path
       d="m 17,12 c -2.752703,0 -5,2.247298 -5,5 l 0,62 c 0,2.752703 2.247298,5.000001 5,5 l 62,0 c 2.752703,0 5.000001,-2.247296 5,-5 l 0,-62 c 0,-2.752703 -2.247297,-5 -5,-5 l -62,0 z m 0,2 62,0 c 1.679298,0 3,1.320703 3,3 l 0,62 c 10e-7,1.679298 -1.320703,3 -3,3 l -62,0 c -1.679296,10e-7 -3,-1.320703 -3,-3 l 0,-62 c 0,-1.679296 1.320703,-3 3,-3 z"
       id="rect3425"
       style="fill:url(#linearGradient3287);fill-opacity:1;fill-rule:nonzero;stroke:none;display:inline" />
    <path
       d="M 12,90 C 8.676,90 6,87.324 6,84 L 6,82 6,14 6,12 c 0,-0.334721 0.04135,-0.6507 0.09375,-0.96875 0.0487,-0.295596 0.09704,-0.596915 0.1875,-0.875 C 6.29113,10.12587 6.302142,10.09265 6.3125,10.0625 6.411365,9.774729 6.5473802,9.515048 6.6875,9.25 6.8320918,8.976493 7.0031161,8.714385 7.1875,8.46875 7.3718839,8.223115 7.5612765,7.995278 7.78125,7.78125 8.221197,7.353194 8.72416,6.966724 9.28125,6.6875 9.559795,6.547888 9.8547231,6.440553 10.15625,6.34375 9.9000482,6.443972 9.6695391,6.580022 9.4375,6.71875 c -0.00741,0.0044 -0.023866,-0.0045 -0.03125,0 -0.031933,0.0193 -0.062293,0.04251 -0.09375,0.0625 -0.120395,0.0767 -0.2310226,0.163513 -0.34375,0.25 -0.1061728,0.0808 -0.2132809,0.161112 -0.3125,0.25 C 8.4783201,7.442683 8.3087904,7.626638 8.15625,7.8125 8.0486711,7.942755 7.9378561,8.077785 7.84375,8.21875 7.818661,8.25713 7.805304,8.30462 7.78125,8.34375 7.716487,8.446782 7.6510225,8.548267 7.59375,8.65625 7.4927417,8.850956 7.3880752,9.071951 7.3125,9.28125 7.30454,9.30306 7.288911,9.3218 7.28125,9.34375 7.2494249,9.4357 7.2454455,9.530581 7.21875,9.625 7.1884177,9.731618 7.1483606,9.828031 7.125,9.9375 7.0521214,10.279012 7,10.635705 7,11 l 0,2 0,68 0,2 c 0,2.781848 2.2181517,5 5,5 l 2,0 68,0 2,0 c 2.781848,0 5,-2.218152 5,-5 l 0,-2 0,-68 0,-2 C 89,10.635705 88.94788,10.279012 88.875,9.9375 88.83085,9.730607 88.78662,9.539842 88.71875,9.34375 88.71105,9.3218 88.69545,9.30306 88.6875,9.28125 88.62476,9.107511 88.549117,8.913801 88.46875,8.75 88.42717,8.6672 88.38971,8.580046 88.34375,8.5 88.28915,8.40279 88.216976,8.31165 88.15625,8.21875 88.06214,8.077785 87.951329,7.942755 87.84375,7.8125 87.700576,7.63805 87.540609,7.465502 87.375,7.3125 87.36383,7.3023 87.35502,7.29135 87.34375,7.28125 87.205364,7.155694 87.058659,7.046814 86.90625,6.9375 86.803679,6.86435 86.701932,6.784136 86.59375,6.71875 c -0.0074,-0.0045 -0.02384,0.0044 -0.03125,0 -0.232039,-0.138728 -0.462548,-0.274778 -0.71875,-0.375 0.301527,0.0968 0.596455,0.204138 0.875,0.34375 0.55709,0.279224 1.060053,0.665694 1.5,1.09375 0.219973,0.214028 0.409366,0.441865 0.59375,0.6875 0.184384,0.245635 0.355408,0.507743 0.5,0.78125 0.14012,0.265048 0.276135,0.524729 0.375,0.8125 0.01041,0.03078 0.02133,0.06274 0.03125,0.09375 0.09046,0.278085 0.1388,0.579404 0.1875,0.875 C 89.95865,11.3493 90,11.665279 90,12 l 0,2 0,68 0,2 c 0,3.324 -2.676,6 -6,6 l -72,0 z"
       id="path3615"
       style="opacity:0.25;fill:url(#radialGradient2874);fill-opacity:1;fill-rule:nonzero;stroke:none" />
    <rect
       width="66"
       height="66"
       rx="12"
       ry="12"
       x="15"
       y="15"
       clip-path="url(#clipPath3613)"
       id="rect3171"
       style="opacity:0.1;fill:url(#linearGradient2908);fill-opacity:1;fill-rule:nonzero;stroke:#ffffff;stroke-width:0.5;stroke-linecap:round;stroke-linejoin:miter;stroke-miterlimit:4;stroke-opacity:1;stroke-dasharray:none;stroke-dashoffset:0;filter:url(#filter3743)" />
  </g>
</svg>
