<?xml version="1.0" encoding="UTF-8" standalone="no"?>
<!-- Created with Inkscape (http://www.inkscape.org/) -->

<svg
   xmlns:dc="http://purl.org/dc/elements/1.1/"
   xmlns:cc="http://creativecommons.org/ns#"
   xmlns:rdf="http://www.w3.org/1999/02/22-rdf-syntax-ns#"
   xmlns:svg="http://www.w3.org/2000/svg"
   xmlns="http://www.w3.org/2000/svg"
   xmlns:sodipodi="http://sodipodi.sourceforge.net/DTD/sodipodi-0.dtd"
   xmlns:inkscape="http://www.inkscape.org/namespaces/inkscape"
   width="184.22316mm"
   height="61.766479mm"
   viewBox="0 0 184.22316 61.76648"
   version="1.1"
   id="svg4632"
   inkscape:version="0.92.1 r"
   sodipodi:docname="horizontal white.svg"
   inkscape:export-filename="/home/anxhelo/Documents/ura works folder/gqrx/horizontal color.png"
   inkscape:export-xdpi="141.06"
   inkscape:export-ydpi="141.06">
  <defs
     id="defs4626" />
  <sodipodi:namedview
     id="base"
     pagecolor="#ffffff"
     bordercolor="#666666"
     borderopacity="1.0"
     inkscape:pageopacity="0.0"
     inkscape:pageshadow="2"
     inkscape:zoom="0.7"
     inkscape:cx="231.19331"
     inkscape:cy="182.73871"
     inkscape:document-units="mm"
     inkscape:current-layer="layer1"
     showgrid="false"
     fit-margin-top="0"
     fit-margin-left="0"
     fit-margin-right="0"
     fit-margin-bottom="0"
     inkscape:window-width="1366"
     inkscape:window-height="740"
     inkscape:window-x="0"
     inkscape:window-y="0"
     inkscape:window-maximized="1" />
  <metadata
     id="metadata4629">
    <rdf:RDF>
      <cc:Work
         rdf:about="">
        <dc:format>image/svg+xml</dc:format>
        <dc:type
           rdf:resource="http://purl.org/dc/dcmitype/StillImage" />
        <dc:title></dc:title>
      </cc:Work>
    </rdf:RDF>
  </metadata>
  <g
     inkscape:label="Layer 1"
     inkscape:groupmode="layer"
     id="layer1"
     transform="translate(-37.270861,-100.83037)">
    <path
       inkscape:connector-curvature="0"
       id="path4550"
       style="fill:#ffffff;fill-opacity:1;fill-rule:nonzero;stroke:none;stroke-width:0.35277775"
       d="m 133.82091,137.09775 v -11.26701 c -0.89253,-1.05975 -2.23061,-2.3428 -4.96393,-2.3428 -3.62585,0 -5.68925,2.78941 -5.68925,7.92057 0,4.68559 1.84044,7.97595 5.68925,7.97595 2.39782,0 3.8481,-0.78034 4.96393,-2.28671 m -10.20727,13.72129 c 7.69726,-0.61312 10.20727,-1.72896 10.20727,-5.85646 v -0.7814 c -1.72896,1.72967 -3.90419,2.17558 -6.13586,2.17558 -6.80438,0 -11.76867,-5.02003 -11.76867,-14.94825 0,-9.20292 4.85246,-14.89287 11.82476,-14.89287 2.5661,0 4.57341,0.72531 6.07977,2.17558 v -1.50566 h 7.25064 v 24.65388 c 0,9.81675 -2.67723,14.16685 -13.44154,15.00399 z" />
    <path
       inkscape:connector-curvature="0"
       id="path4554"
       style="fill:#ffffff;fill-opacity:1;fill-rule:nonzero;stroke:none;stroke-width:0.35277775"
       d="m 162.71041,137.04173 v -11.26631 c -1.05974,-1.39523 -2.5661,-2.28741 -4.96393,-2.28741 -3.73698,0 -5.68925,3.17994 -5.68925,7.97666 0,5.07506 2.0634,7.91986 5.68925,7.91986 2.51001,0 4.23862,-1.17087 4.96393,-2.3428 m -17.90488,-5.57706 c 0,-9.64953 4.96499,-14.94896 12.10451,-14.94896 2.73262,0 4.51732,0.94827 5.80037,2.73332 v -2.06339 h 7.25064 v 36.36644 l -7.25064,3.29142 v -13.21929 c -1.28305,1.61678 -3.23532,2.73262 -6.07977,2.73262 -6.80508,0 -11.82511,-5.52203 -11.82511,-14.89216" />
    <path
       inkscape:connector-curvature="0"
       id="path4558"
       style="fill:#ffffff;fill-opacity:1;fill-rule:nonzero;stroke:none;stroke-width:0.35277775"
       d="m 175.08942,117.18553 h 7.25064 v 2.51001 c 0.83644,-1.7847 2.45428,-3.17994 5.29872,-3.17994 2.39889,0 4.18359,0.83715 5.80143,2.17558 l -1.00471,6.63752 c -1.33808,-0.94827 -2.95592,-1.67358 -5.18724,-1.67358 -2.50931,0 -4.9082,1.22767 -4.9082,6.13586 v 15.89652 h -7.25064 z" />
    <path
       inkscape:connector-curvature="0"
       id="path4562"
       style="fill:#ffffff;fill-opacity:1;fill-rule:nonzero;stroke:none;stroke-width:0.35277775"
       d="m 202.7527,130.90671 -9.59344,-13.72129 h 8.42151 l 3.73733,5.40985 c 0.61383,0.89253 1.33879,1.89724 1.61749,2.6222 0.39052,-0.72496 1.00435,-1.78471 1.61748,-2.6222 l 3.79307,-5.40985 h 8.42257 l -9.59344,13.72129 10.31875,14.78104 h -8.42257 l -4.51838,-6.41456 c -0.61313,-0.83643 -1.22696,-1.89618 -1.61748,-2.62114 -0.2787,0.72496 -1.00366,1.72861 -1.61749,2.62114 l -4.46228,6.41456 h -8.42187 z" />
    <path
       inkscape:connector-curvature="0"
       id="path4566"
       style="fill:#ffffff;fill-opacity:1;fill-rule:nonzero;stroke:none;stroke-width:0.35277775"
       d="m 46.94191,113.54342 8.431036,12.15637 11.610268,-21.35399 12.176125,23.25652 8.909405,-15.24318 8.958789,15.73812 h 2.009775 V 100.83037 H 37.270861 v 25.07579 h 1.808338 z" />
    <path
       inkscape:connector-curvature="0"
       id="path4570"
       style="fill:#ffffff;fill-opacity:1;fill-rule:nonzero;stroke:none;stroke-width:0.35277775"
       d="m 88.022884,120.33125 -9.055452,15.49365 -12.050184,-23.01664 -11.132608,20.47452 -8.698795,-12.54231 -5.819422,9.14929 h -3.99556 v 32.70709 h 6.148563 v -23.74371 h 5.376686 v 23.74371 h 3.974394 v -23.74371 h 2.748492 v 23.74371 h 8.405987 v -23.74371 h 5.496984 v 23.74371 h 8.84414 V 138.85314 H 81.0146 v 23.74371 h 4.422423 v -23.74371 h 5.496984 v 23.74371 h 8.103303 v -30.51598 h -4.326112 z" />
  </g>
</svg>
