<?xml version="1.0" encoding="UTF-8" standalone="no"?>
<!-- Created with Inkscape (http://www.inkscape.org/) -->

<svg
   xmlns:dc="http://purl.org/dc/elements/1.1/"
   xmlns:cc="http://creativecommons.org/ns#"
   xmlns:rdf="http://www.w3.org/1999/02/22-rdf-syntax-ns#"
   xmlns:svg="http://www.w3.org/2000/svg"
   xmlns="http://www.w3.org/2000/svg"
   xmlns:sodipodi="http://sodipodi.sourceforge.net/DTD/sodipodi-0.dtd"
   xmlns:inkscape="http://www.inkscape.org/namespaces/inkscape"
   width="105.57767mm"
   height="108.77865mm"
   viewBox="0 0 105.57767 108.77865"
   version="1.1"
   id="svg4632"
   inkscape:version="0.92.1 r"
   sodipodi:docname="vertical color.svg"
   inkscape:export-filename="/home/anxhelo/Documents/ura works folder/gqrx/horizontal white.png"
   inkscape:export-xdpi="141.06"
   inkscape:export-ydpi="141.06">
  <defs
     id="defs4626" />
  <sodipodi:namedview
     id="base"
     pagecolor="#ffffff"
     bordercolor="#666666"
     borderopacity="1.0"
     inkscape:pageopacity="0.0"
     inkscape:pageshadow="2"
     inkscape:zoom="0.7"
     inkscape:cx="229.23153"
     inkscape:cy="145.71791"
     inkscape:document-units="mm"
     inkscape:current-layer="layer1"
     showgrid="false"
     fit-margin-top="0"
     fit-margin-left="0"
     fit-margin-right="0"
     fit-margin-bottom="0"
     inkscape:window-width="1366"
     inkscape:window-height="740"
     inkscape:window-x="0"
     inkscape:window-y="0"
     inkscape:window-maximized="1" />
  <metadata
     id="metadata4629">
    <rdf:RDF>
      <cc:Work
         rdf:about="">
        <dc:format>image/svg+xml</dc:format>
        <dc:type
           rdf:resource="http://purl.org/dc/dcmitype/StillImage" />
        <dc:title></dc:title>
      </cc:Work>
    </rdf:RDF>
  </metadata>
  <g
     inkscape:label="Layer 1"
     inkscape:groupmode="layer"
     id="layer1"
     transform="translate(-37.789916,-104.49931)">
    <g
       id="g5379"
       transform="translate(1.5221341e-6,-3.175)">
      <g
         id="g4522"
         transform="matrix(0.35277777,0,0,-0.35277777,55.694445,196.70718)">
        <path
           d="m 0,0 v 31.938 c -2.53,3.004 -6.323,6.641 -14.071,6.641 -10.278,0 -16.127,-7.907 -16.127,-22.452 0,-13.282 5.217,-22.609 16.127,-22.609 C -7.274,-6.482 -3.163,-4.27 0,0 M -28.934,-38.895 C -7.115,-37.157 0,-33.994 0,-22.294 v 2.215 c -4.901,-4.903 -11.067,-6.167 -17.393,-6.167 -19.288,0 -33.36,14.23 -33.36,42.373 0,26.087 13.755,42.216 33.519,42.216 7.274,0 12.964,-2.056 17.234,-6.167 v 4.268 h 20.553 v -69.885 c 0,-27.827 -7.589,-40.158 -38.102,-42.531 z"
           style="fill:#58595b;fill-opacity:1;fill-rule:nonzero;stroke:none"
           id="path4524"
           inkscape:connector-curvature="0" />
      </g>
      <g
         id="g4526"
         transform="matrix(0.35277777,0,0,-0.35277777,84.583945,196.65119)">
        <path
           d="m 0,0 v 31.936 c -3.004,3.955 -7.274,6.484 -14.071,6.484 -10.593,0 -16.127,-9.014 -16.127,-22.611 0,-14.386 5.849,-22.45 16.127,-22.45 7.115,0 12.015,3.319 14.071,6.641 m -50.754,15.809 c 0,27.353 14.074,42.375 34.312,42.375 7.746,0 12.805,-2.688 16.442,-7.748 v 5.849 H 20.553 V -46.801 L 0,-56.131 v 37.472 c -3.637,-4.583 -9.171,-7.746 -17.234,-7.746 -19.29,0 -33.52,15.653 -33.52,42.214"
           style="fill:#58595b;fill-opacity:1;fill-rule:nonzero;stroke:none"
           id="path4528"
           inkscape:connector-curvature="0" />
      </g>
      <g
         id="g4530"
         transform="matrix(0.35277777,0,0,-0.35277777,96.962945,176.79499)">
        <path
           d="m 0,0 h 20.553 v -7.115 c 2.371,5.059 6.957,9.014 15.02,9.014 6.8,0 11.859,-2.373 16.445,-6.167 L 49.17,-23.083 c -3.793,2.688 -8.379,4.744 -14.704,4.744 -7.113,0 -13.913,-3.48 -13.913,-17.393 V -80.793 H 0 Z"
           style="fill:#58595b;fill-opacity:1;fill-rule:nonzero;stroke:none"
           id="path4532"
           inkscape:connector-curvature="0" />
      </g>
      <g
         id="g4534"
         transform="matrix(0.35277777,0,0,-0.35277777,124.62626,190.51614)">
        <path
           d="M 0,0 -27.194,38.895 H -3.322 L 7.272,23.56 c 1.74,-2.53 3.795,-5.378 4.585,-7.433 1.107,2.055 2.847,5.059 4.585,7.433 L 27.194,38.895 H 51.069 L 23.875,0 53.125,-41.899 H 29.25 l -12.808,18.183 c -1.738,2.371 -3.478,5.375 -4.585,7.43 -0.79,-2.055 -2.845,-4.9 -4.585,-7.43 L -5.377,-41.899 H -29.25 Z"
           style="fill:#58595b;fill-opacity:1;fill-rule:nonzero;stroke:none"
           id="path4536"
           inkscape:connector-curvature="0" />
      </g>
    </g>
    <g
       id="g5385"
       transform="matrix(0.88985018,0,0,0.88985018,8.9766256,11.510581)">
      <g
         id="g4538"
         transform="matrix(0.35277777,0,0,-0.35277777,70.491026,117.21236)">
        <path
           d="M 0,0 23.899,-34.459 56.81,26.072 91.325,-39.852 116.58,3.357 141.975,-41.255 h 5.697 V 36.037 H -27.414 v -71.081 h 5.126 z"
           style="fill:#18507d;fill-opacity:1;fill-rule:nonzero;stroke:none"
           id="path4540"
           inkscape:connector-curvature="0" />
      </g>
      <g
         id="g4542"
         transform="matrix(0.35277777,0,0,-0.35277777,111.57203,124.00023)">
        <path
           d="m 0,0 -25.669,-43.919 -34.158,65.244 -31.557,-58.038 -24.658,35.553 -16.496,-25.935 h -11.326 v -92.713 h 17.429 v 67.305 h 15.241 v -67.305 h 11.266 v 67.305 h 7.791 v -67.305 h 23.828 v 67.305 h 15.582 v -67.305 h 25.07 v 67.305 h 7.791 v -67.305 H -7.33 v 67.305 H 8.252 v -67.305 h 22.97 v 86.502 H 18.959 Z"
           style="fill:#18507d;fill-opacity:1;fill-rule:nonzero;stroke:none"
           id="path4544"
           inkscape:connector-curvature="0" />
      </g>
    </g>
  </g>
</svg>
